<?xml version="1.0" encoding="UTF-8" standalone="no" ?>
<!DOCTYPE svg PUBLIC "-//W3C//DTD SVG 1.1//EN" "http://www.w3.org/Graphics/SVG/1.1/DTD/svg11.dtd">
<svg xmlns="http://www.w3.org/2000/svg" xmlns:xlink="http://www.w3.org/1999/xlink" version="1.1" width="1080" height="1080" viewBox="0 0 1080 1080" xml:space="preserve">
<desc>Created with Fabric.js 5.2.4</desc>
<defs>
</defs>
<rect x="0" y="0" width="100%" height="100%" fill="transparent"></rect>
<g transform="matrix(1 0 0 1 540 540)" id="ab4aebe2-71e4-4220-97c6-152bdfa012d5"  >
<rect style="stroke: none; stroke-width: 1; stroke-dasharray: none; stroke-linecap: butt; stroke-dashoffset: 0; stroke-linejoin: miter; stroke-miterlimit: 4; fill: rgb(255,255,255); fill-rule: nonzero; opacity: 1; visibility: hidden;" vector-effect="non-scaling-stroke"  x="-540" y="-540" rx="0" ry="0" width="1080" height="1080" />
</g>
<g transform="matrix(Infinity NaN NaN Infinity 0 0)" id="74e15618-131b-4ce3-84ed-c674e7304f88"  >
</g>
<g transform="matrix(0.56 0 0 0.61 540 532.6)"  >
<g style="opacity: 1;" vector-effect="non-scaling-stroke"   >
		<g transform="matrix(1 0 0 1 0 -517)"  >
<path style="stroke: none; stroke-width: 1; stroke-dasharray: none; stroke-linecap: butt; stroke-dashoffset: 0; stroke-linejoin: miter; stroke-miterlimit: 4; fill: rgb(194,194,194); fill-rule: nonzero; opacity: 1;" vector-effect="non-scaling-stroke"  transform=" translate(-940.54, -302.28)" d="M 1742.0912 585.2868 C 1712.1825000000001 585.2868 1682.2766000000001 573.8774 1659.4577000000002 551.0585 C 1467.2548000000002 358.8556 1211.9391 253.00379999999996 940.5435000000001 253.00379999999996 C 669.1479000000002 253.00379999999996 413.8335 358.8556 221.6292 551.0585 C 175.9915 596.6963 101.9999 596.6963 56.3621 551.0585 C 10.7243 505.4207 10.724399999999996 431.4292 56.3621 385.79139999999995 C 175.7746 266.379 314.9888 173.9024 470.136 110.9308 C 619.9693 50.1161 778.2378000000001 19.280100000000004 940.5434 19.280100000000004 C 1102.849 19.280100000000004 1261.1174 50.1161 1410.9523 110.9308 C 1566.0994999999998 173.9024 1705.3123 266.379 1824.7248 385.79150000000004 C 1870.3625 431.42920000000004 1870.3625 505.42220000000003 1824.7248 551.0586000000001 C 1801.9059 573.8774 1772 585.2868 1742.0912 585.2868 z" stroke-linecap="round" />
</g>
		<g transform="matrix(1 0 0 1 0 -116.95)"  >
<path style="stroke: none; stroke-width: 1; stroke-dasharray: none; stroke-linecap: butt; stroke-dashoffset: 0; stroke-linejoin: miter; stroke-miterlimit: 4; fill: rgb(194,194,194); fill-rule: nonzero; opacity: 1;" vector-effect="non-scaling-stroke"  transform=" translate(-940.54, -702.33)" d="M 1501.6265 935.4893 C 1471.7149000000002 935.4920999999999 1441.8147000000001 924.0826999999999 1418.9930000000002 901.261 C 1291.0727000000002 773.3407 1121.1551000000002 702.8912 940.5442000000002 702.8912 C 759.9319000000002 702.8912 590.0144000000001 773.3407 462.09400000000016 901.261 C 416.4562000000002 946.8987999999999 342.46470000000016 946.8987999999999 296.82690000000014 901.261 C 251.18920000000014 855.6247 251.18920000000014 781.6316999999999 296.82690000000014 735.9939999999999 C 468.89140000000015 563.9280999999999 697.5009000000001 469.16759999999994 940.5442000000002 469.16759999999994 C 1183.5860000000002 469.16759999999994 1412.1970000000001 563.9281 1584.2601000000002 735.9939999999999 C 1629.8978000000002 781.6316999999999 1629.8978000000002 855.6247 1584.2601000000002 901.261 C 1561.444 924.077 1531.5295 935.4865 1501.6265 935.4893 z" stroke-linecap="round" />
</g>
		<g transform="matrix(1 0 0 1 0 283.09)"  >
<path style="stroke: none; stroke-width: 1; stroke-dasharray: none; stroke-linecap: butt; stroke-dashoffset: 0; stroke-linejoin: miter; stroke-miterlimit: 4; fill: rgb(194,194,194); fill-rule: nonzero; opacity: 1;" vector-effect="non-scaling-stroke"  transform=" translate(-940.54, -1102.37)" d="M 1181.0082 1269.0776 C 1151.0995 1269.0776 1121.1935 1257.6682 1098.3747 1234.8493 C 1011.3475000000001 1147.8262 869.7438000000001 1147.8220000000001 782.7122 1234.8493 C 737.0745000000001 1280.487 663.0829000000001 1280.487 617.4452000000001 1234.8493 C 571.8074000000001 1189.2115000000001 571.8074000000001 1115.2199 617.4452000000001 1069.5822 C 703.8005 983.2269000000001 818.5454000000001 935.6690000000001 940.5428000000002 935.6690000000001 C 1062.5430000000001 935.6690000000001 1177.2879000000003 983.2269000000001 1263.6418 1069.5822 C 1309.2795 1115.2199 1309.2795 1189.2115000000001 1263.6418 1234.8493 C 1240.8229 1257.6682 1210.917 1269.0776 1181.0082 1269.0776 z" stroke-linecap="round" />
</g>
		<g transform="matrix(1 0 0 1 0 683.14)"  >
<path style="stroke: none; stroke-width: 1; stroke-dasharray: none; stroke-linecap: butt; stroke-dashoffset: 0; stroke-linejoin: miter; stroke-miterlimit: 4; fill: rgb(194,194,194); fill-rule: nonzero; opacity: 1;" vector-effect="non-scaling-stroke"  transform=" translate(-940.54, -1502.42)" d="M 940.5427 1619.2802 C 909.7795 1619.2802 879.6581 1606.8036 857.922 1585.0404999999998 C 836.1559 1563.2743999999998 823.6809000000001 1533.1830999999997 823.6809000000001 1502.4182999999998 C 823.6809000000001 1471.6536999999998 836.1560000000001 1441.5337999999997 857.922 1419.7676999999999 C 879.6581 1398.0302 909.7795 1385.5565 940.5427 1385.5565 C 971.3059 1385.5565 1001.4286999999999 1398.0301 1023.1947 1419.7676999999999 C 1044.9294 1441.5023999999999 1057.4059 1471.6252 1057.4059 1502.4182999999998 C 1057.4059 1533.1830999999997 1044.9293 1563.3029 1023.1947 1585.0404999999998 C 1001.4287 1606.8036 971.306 1619.2802 940.5427 1619.2802 z" stroke-linecap="round" />
</g>
</g>
</g>
<g transform="matrix(NaN NaN NaN NaN 0 0)"  >
<g style=""   >
</g>
</g>
<g transform="matrix(NaN NaN NaN NaN 0 0)"  >
<g style=""   >
</g>
</g>
</svg>